<svg xmlns="http://www.w3.org/2000/svg" width="106" height="133" viewBox="0 0 105.596 132.952"><path fill="#4D4D4D" d="M105.588 96.478l-.002-49.385c.012-.177.243-4.37-2.828-7.647-1.702-1.815-4.037-2.966-6.992-3.447v2.04c2.336.435 4.192 1.353 5.516 2.756 2.482 2.63 2.31 6.137 2.307 6.233v49.51c.003.034.176 3.543-2.307 6.175-1.914 2.027-4.907 3.056-8.9 3.056-1.606 0-3.393-.17-5.275-.5-.248-.05-6.145-1.262-13.213-1.262-10.336 0-17.577 2.632-21.095 7.637-3.52-5.005-10.765-7.637-21.102-7.637-7.067 0-12.966 1.21-13.183 1.256-1.914.336-3.7.507-5.307.507-3.99 0-6.982-1.027-8.895-3.054-2.483-2.632-2.31-6.14-2.306-6.237V46.962c-.003-.035-.197-3.5 2.286-6.15 1.327-1.415 3.19-2.334 5.537-2.77v-2.017c-2.943.483-5.303 1.613-6.996 3.42-3.07 3.277-2.836 7.47-2.826 7.583L.01 96.412c-.012.177-.245 4.373 2.827 7.65 2.305 2.46 5.794 3.706 10.37 3.706 1.724 0 3.626-.182 5.685-.543.06-.013 5.953-1.22 12.806-1.22 7.326 0 16.78 1.39 20.214 8.02l.89 1.716.887-1.716c3.428-6.63 12.88-8.02 20.205-8.02 6.853 0 12.746 1.207 12.836 1.226 7.42 1.3 12.857.215 16.03-3.17 3.07-3.278 2.838-7.473 2.828-7.585z"/><path fill="#4D4D4D" d="M14.95 80.845v-.066c0-5.973 4.58-11.033 11.01-11.033 3.716 0 6.01 1.034 8.2 2.9l-2.375 2.835c-1.65-1.403-3.266-2.288-5.98-2.288-3.928 0-6.92 3.442-6.92 7.526v.06c0 4.394 2.895 7.63 7.26 7.63 2.01 0 3.84-.642 5.154-1.623v-3.993h-5.464v-3.26h9.092v8.962c-2.11 1.8-5.125 3.323-8.908 3.323-6.678-.002-11.07-4.757-11.07-10.975zM39.8 70.114h8.41c4.972 0 8.105 2.83 8.105 7.14v.057c0 4.788-3.84 7.288-8.535 7.288h-4.232v6.856H39.8v-21.34zm8.108 11.1c2.836 0 4.602-1.59 4.602-3.813v-.06c0-2.5-1.8-3.812-4.602-3.812h-4.36v7.685h4.36zM54.998 88.313l2.475-2.524c1.248 1.58 2.494 2.494 4.3 2.494 2.015 0 3.384-1.34 3.384-4.184V70.114h3.838V84.2c0 2.528-.732 4.42-1.977 5.67-1.258 1.25-3.053 1.89-5.188 1.89-3.293 0-5.426-1.523-6.832-3.447zM74.14 70.114h8.417c4.97 0 8.113 2.83 8.113 7.14v.057c0 4.788-3.846 7.288-8.54 7.288h-4.24v6.856h-3.75v-21.34zm8.116 11.1c2.834 0 4.6-1.59 4.6-3.813v-.06c0-2.5-1.795-3.812-4.6-3.812H77.89v7.685h4.366z"/><g fill="#4D4D4D"><path d="M34.295 55.2h-7.438V38.845h7.438V55.2zm-6.127-1.306h4.814V40.15h-4.814v13.744z"/><path d="M32.357 40.163H28.44l-1.66-5.404h7.657l-2.08 5.403zM29.41 38.86h2.057l1.066-2.794h-3.98l.857 2.793z"/></g><g fill="#4D4D4D"><path d="M22.402 55.2h-7.428V38.845h7.428V55.2zm-6.125-1.306h4.82V40.15h-4.82v13.744z"/><path d="M20.475 40.163H16.56l-1.665-5.404h7.652l-2.072 5.403zm-2.952-1.304h2.053l1.072-2.794h-3.982l.857 2.793z"/></g><g fill="#4D4D4D"><path d="M90.465 55.2h-7.44V38.845h7.44V55.2zm-6.13-1.306h4.813V40.15h-4.814v13.744z"/><path d="M88.533 40.163h-3.926l-1.66-5.404h7.658l-2.072 5.403zm-2.957-1.304h2.05l1.075-2.794h-3.98l.856 2.793z"/></g><g fill="#4D4D4D"><path d="M78.576 55.2H71.14V38.845h7.436V55.2zm-6.13-1.306h4.823V40.15h-4.823v13.744z"/><path d="M76.64 40.163h-3.917L71.06 34.76h7.66l-2.08 5.403zm-2.95-1.304h2.048l1.074-2.794h-3.98l.857 2.793z"/></g><path fill="#4D4D4D" d="M59.154 64.954H46.166l.027-19.635c.16-3.895 3.018-6.924 6.506-6.924 3.497 0 6.35 3.03 6.5 6.898l-.046 19.66zm-11.675-1.31H57.85l.04-18.324c-.118-3.14-2.4-5.615-5.192-5.615-2.787 0-5.07 2.475-5.195 5.645l-.026 18.293z"/><path fill="#4D4D4D" d="M52.043 39.046h1.31v25.8h-1.31zM43.107 46.44h-4.162l-1.39-14.264h7.28L43.107 46.44zm-2.978-1.307h1.817l1.412-11.656h-4.364l1.133 11.656zM66.156 46.44h-4.162L60.61 32.176h7.272L66.156 46.44zm-2.978-1.307h1.818l1.418-11.656h-4.37l1.134 11.656z"/><g fill="#4D4D4D"><path d="M50.47 34.532c-4.624 1.074-8.128 5.415-8.333 10.78l-.035 19.642 1.307.004.028-19.618c.185-4.74 3.263-8.587 7.32-9.534l-.288-1.274zM63.264 45.13c-.208-5.314-3.77-9.625-8.456-10.634l-.356 1.263c4.148.853 7.315 4.684 7.506 9.402l.037 19.796 1.31-.004-.04-19.825z"/></g><path fill="#4D4D4D" d="M66.088 29.373l2.047.8-.715 1.2h27.346v64.485h-29.57c-5.38.262-9.88 2.485-12.397 6.043-2.49-3.52-6.908-5.696-12.446-6.042H10.828l.002-64.485h27.372l-.71-1.2 2.046-.8H8.83l-.002 68.485 31.463-.002c5.49.344 9.724 2.688 11.616 6.43l.894 1.766.892-1.766c1.9-3.767 6.237-6.17 11.55-6.428h31.524V29.373H66.088z"/><path fill="#4D4D4D" d="M67.713 33.46h-29.81l-2.323-3.92 17.35-6.694.123.046 16.986 6.65-2.327 3.918zm-29.065-1.308H66.97l1.164-1.953-15.324-5.997L37.492 30.2l1.156 1.952z"/><path fill="#4D4D4D" d="M44.012 29.72h17.595l-8.796-3.133M48.594 32.177l1.715 7.577h4.368l2.15-7.577h-8.234zm5.1 6.265h-2.34l-1.124-4.966h4.865l-1.402 4.966z"/></svg>